<svg width="18" height="18" viewBox="0 0 18 18" fill="none" xmlns="http://www.w3.org/2000/svg">
<path d="M17.7797 6.6244C17.5897 6.388 17.3033 6.25 17.0001 6.25H16.0001C16.0001 5.6976 15.5525 5.25 15.0001 5.25H14.0001V4.25C14.0001 3.6976 13.5525 3.25 13.0001 3.25H12.5001V1.25C12.5001 0.974 12.2757 0.75 12.0001 0.75H2.00006C1.72366 0.75 1.50006 0.974 1.50006 1.25V3.25H1.00006C0.447661 3.25 6.10352e-05 3.6976 6.10352e-05 4.25V16.25C6.10352e-05 16.8024 0.447661 17.25 1.00006 17.25H3.00006H13.0001H15.0001C15.4689 17.25 15.8753 16.9244 15.9757 16.4668L17.9757 7.4668C18.0421 7.1708 17.9697 6.8608 17.7797 6.6244ZM1.50006 16.25H1.00006V4.25H1.50006V16.25ZM12.0001 5.25C11.4477 5.25 11.0001 5.6976 11.0001 6.25H5.00006C4.53126 6.25 4.12486 6.5756 4.02366 7.0332C4.02366 7.0332 2.00086 16.178 2.00086 16.25H2.00006V1.25H12.0001V5.25ZM13.0001 5.25H12.5001V4.25H13.0001V5.25ZM9.93326 3.4668H3.96686C3.69086 3.4668 3.46686 3.2428 3.46686 2.9668C3.46686 2.6908 3.69086 2.4668 3.96686 2.4668H9.93326C10.2093 2.4668 10.4333 2.6908 10.4333 2.9668C10.4333 3.2428 10.2093 3.4668 9.93326 3.4668ZM9.93326 5.5H3.96686C3.69086 5.5 3.46686 5.276 3.46686 5C3.46686 4.724 3.69086 4.5 3.96686 4.5H9.93326C10.2093 4.5 10.4333 4.724 10.4333 5C10.4333 5.276 10.2093 5.5 9.93326 5.5Z" fill="#2ABAEA"/>
</svg>
