<svg width="18" height="18" viewBox="0 0 18 18" fill="none" xmlns="http://www.w3.org/2000/svg">
<path d="M9.81477 3.56507C9.81477 1.66416 8.26832 0.117653 6.36741 0.117653C4.46644 0.117653 2.92004 1.66416 2.92004 3.56507C2.92004 5.46599 4.46644 7.01238 6.36741 7.01238C8.26832 7.01238 9.81477 5.46599 9.81477 3.56507Z" fill="#83CFA2"/>
<path d="M12.6085 10.0007C12.2867 9.67893 11.7649 9.67888 11.443 10.0006C11.1213 10.3224 11.1213 10.8442 11.443 11.1661L12.5084 12.2317L11.443 13.297C11.1213 13.6188 11.1213 14.1406 11.443 14.4624C11.604 14.6234 11.8149 14.7038 12.0258 14.7038C12.2366 14.7038 12.4476 14.6234 12.6084 14.4625L14.2565 12.8145C14.4111 12.6599 14.498 12.4503 14.498 12.2317C14.498 12.0132 14.4112 11.8036 14.2566 11.649L12.6085 10.0007Z" fill="#83CFA2"/>
<path d="M12.3004 6.46301C10.4057 6.46301 8.72151 7.38135 7.66928 8.79623C7.24279 8.70679 6.80708 8.66053 6.36713 8.66053C2.8834 8.66053 0.0492554 11.4947 0.0492554 14.9784C0.0492554 15.4335 0.418165 15.8025 0.873327 15.8025H7.77333C8.83067 17.1401 10.4669 18 12.3004 18C15.4811 18 18.0689 15.4123 18.0689 12.2315C18.0689 9.05081 15.4811 6.46301 12.3004 6.46301ZM12.3004 16.3519C10.0284 16.3519 8.18009 14.5035 8.18009 12.2315C8.18009 9.95954 10.0284 8.11115 12.3004 8.11115C14.5724 8.11115 16.4208 9.95954 16.4208 12.2315C16.4208 14.5035 14.5724 16.3519 12.3004 16.3519Z" fill="#83CFA2"/>
</svg>
