<svg width="11" height="15" viewBox="0 0 11 15" fill="none" xmlns="http://www.w3.org/2000/svg">
<path d="M5.3663 6.59803C6.21688 6.59729 6.90562 5.90706 6.90478 5.05657C6.90404 4.20607 6.21381 3.51724 5.36322 3.51808C4.51283 3.51892 3.82399 4.20906 3.82483 5.05955C3.82753 5.90929 4.51655 6.59691 5.3663 6.59803ZM5.3663 4.11439C5.88826 4.11439 6.31145 4.53749 6.31145 5.05955C6.31145 5.58151 5.88826 6.0047 5.3663 6.0047C4.84424 6.0047 4.42114 5.58151 4.42114 5.05955C4.42124 4.53759 4.84443 4.11448 5.3663 4.11439Z" fill="#20283A"/>
<path d="M3.29633 9.91664H7.43464C7.59928 9.91627 7.73233 9.78303 7.7328 9.61848C7.7328 8.94465 7.4884 8.32448 7.04117 7.8683C6.59878 7.41995 5.99529 7.16764 5.36553 7.16764C4.73577 7.16764 4.13228 7.41995 3.68989 7.8683C3.24266 8.32448 2.99817 8.94465 2.99817 9.61848C2.99863 9.78303 3.13178 9.91627 3.29633 9.91664ZM4.11626 8.28572C4.44628 7.95188 4.89612 7.76395 5.36553 7.76395C5.83485 7.76395 6.28478 7.95188 6.61471 8.28572C6.88836 8.56804 7.064 8.93067 7.11571 9.32033H3.61535C3.66641 8.93049 3.84214 8.56748 4.11626 8.28572Z" fill="#20283A"/>
<path d="M9.24272 1.01373H6.55932V0.298156C6.55885 0.133704 6.42561 0.000465868 6.26116 0H4.47222C4.30777 0.000465868 4.17453 0.133704 4.17407 0.298156V1.01373H1.49066C0.667469 1.0141 0.000250625 1.68132 -0.00012207 2.50451V12.7611C0.000250625 13.5843 0.667469 14.2515 1.49066 14.2519H9.24272C10.0659 14.2515 10.7331 13.5843 10.7335 12.7611V2.50451C10.7331 1.68132 10.0659 1.0141 9.24272 1.01373ZM4.77038 0.596313H5.963V1.78894H4.77038V0.596313ZM10.1372 12.7611C10.1358 13.2544 9.73608 13.6542 9.24272 13.6556H1.49066C0.997304 13.6542 0.597588 13.2544 0.596191 12.7611V2.50451C0.597588 2.01116 0.997304 1.61144 1.49066 1.61004H4.17407V2.08709C4.17453 2.25155 4.30777 2.38478 4.47222 2.38525H6.26116C6.42561 2.38478 6.55885 2.25155 6.55932 2.08709V1.61004H9.24272C9.73608 1.61144 10.1358 2.01116 10.1372 2.50451V12.7611Z" fill="#20283A"/>
<path d="M8.59248 12.0454H2.14038C1.97574 12.0454 1.84222 12.1789 1.84222 12.3436C1.84222 12.5083 1.97574 12.6417 2.14038 12.6417H8.59546C8.7602 12.6409 8.89297 12.5067 8.89213 12.3421C8.89129 12.1774 8.75712 12.0446 8.59248 12.0454Z" fill="#20283A"/>
<path d="M3.63061 10.7336C3.46598 10.7336 3.33246 10.8671 3.33246 11.0318C3.33246 11.1965 3.46598 11.3299 3.63061 11.3299H7.10414C7.26887 11.3299 7.40229 11.1965 7.40229 11.0318C7.40229 10.8671 7.26887 10.7336 7.10414 10.7336H3.63061Z" fill="#20283A"/>
</svg>
