<svg width="37" height="23" viewBox="0 0 37 23" fill="none" xmlns="http://www.w3.org/2000/svg">
<rect y="0.495239" width="37" height="21.7647" rx="3.26471" fill="#D9D9D9"/>
<rect x="4.35303" y="4.84818" width="2" height="2" rx="1" fill="white"/>
<rect x="4.35303" y="10.2894" width="2" height="2" rx="1" fill="white"/>
<rect x="4.35303" y="15.4952" width="2" height="2" rx="1" fill="white"/>
<rect x="9" y="15.4952" width="19" height="2" rx="1" fill="white"/>
<rect x="17.4119" y="4.84818" width="2" height="2" rx="1" fill="white"/>
<rect x="17.4119" y="10.2894" width="2" height="2" rx="1" fill="white"/>
<rect x="8.70581" y="4.84818" width="2" height="2" rx="1" fill="white"/>
<rect x="8.70581" y="10.2894" width="2" height="2" rx="1" fill="white"/>
<rect x="21.7646" y="4.84818" width="2" height="2" rx="1" fill="white"/>
<rect x="21.7646" y="10.2894" width="2" height="2" rx="1" fill="white"/>
<rect x="13.0588" y="4.84818" width="2" height="2" rx="1" fill="white"/>
<rect x="13.0588" y="10.2894" width="2" height="2" rx="1" fill="white"/>
<rect x="26.1177" y="4.84818" width="2" height="2" rx="1" fill="white"/>
<rect x="26.1177" y="10.2894" width="2" height="2" rx="1" fill="white"/>
<rect x="30.4707" y="4.84818" width="2" height="2" rx="1" fill="white"/>
<rect x="30.4707" y="10.2894" width="2" height="2" rx="1" fill="white"/>
<rect x="30.4707" y="15.4952" width="2" height="2" rx="1" fill="white"/>
</svg>
