<svg width="17" height="19" viewBox="0 0 17 19" fill="none" xmlns="http://www.w3.org/2000/svg">
<path d="M16.3946 16.8098L11.7179 11.9599C12.6238 10.7995 13.1692 9.32494 13.1692 7.71896C13.1692 3.99677 10.2488 0.968117 6.65949 0.968117C3.07023 0.968117 0.14978 3.99673 0.14978 7.71893C0.14978 11.4411 3.07026 14.4698 6.65953 14.4698C8.20815 14.4698 9.63002 13.9041 10.749 12.9647L15.4257 17.8146C15.5593 17.9532 15.7348 18.0229 15.9102 18.0229C16.0856 18.0229 16.2611 17.9532 16.3947 17.8146C16.6626 17.5368 16.6626 17.0877 16.3946 16.8098ZM6.65953 13.0485C3.82538 13.0485 1.52026 10.658 1.52026 7.71893C1.52026 4.77982 3.82538 2.38932 6.65953 2.38932C9.49367 2.38932 11.7988 4.77982 11.7988 7.71893C11.7988 10.658 9.49364 13.0485 6.65953 13.0485Z" fill="#3C454B"/>
</svg>
