<svg width="67" height="63" viewBox="0 0 67 63" fill="none" xmlns="http://www.w3.org/2000/svg">
<path d="M66.1796 22.6575C65.4724 21.7775 64.4064 21.2639 63.2778 21.2639H59.5556C59.5556 19.2077 57.8895 17.5417 55.8333 17.5417H52.1111V13.8194C52.1111 11.7633 50.445 10.0972 48.3889 10.0972H46.5278V2.65277C46.5278 1.62543 45.6925 0.791656 44.6667 0.791656H7.44444C6.41562 0.791656 5.58333 1.62543 5.58333 2.65277V10.0972H3.72222C1.66607 10.0972 0 11.7633 0 13.8194V58.4861C0 60.5423 1.66607 62.2083 3.72222 62.2083H11.1667H48.3889H55.8333C57.5783 62.2083 59.091 60.9964 59.4647 59.2931L66.9092 25.7931C67.1563 24.6913 66.8868 23.5374 66.1796 22.6575ZM5.58333 58.4861H3.72222V13.8194H5.58333V58.4861ZM44.6667 17.5417C42.6105 17.5417 40.9444 19.2077 40.9444 21.2639H18.6111C16.8661 21.2639 15.3534 22.4758 14.9767 24.1791C14.9767 24.1791 7.44742 58.2181 7.44742 58.4861H7.44444V2.65277H44.6667V17.5417ZM48.3889 17.5417H46.5278V13.8194H48.3889V17.5417ZM36.9736 10.9042H14.7653C13.738 10.9042 12.9042 10.0704 12.9042 9.04308C12.9042 8.01575 13.738 7.18197 14.7653 7.18197H36.9736C38.0009 7.18197 38.8347 8.01575 38.8347 9.04308C38.8347 10.0704 38.0009 10.9042 36.9736 10.9042ZM36.9736 18.4722H14.7653C13.738 18.4722 12.9042 17.6384 12.9042 16.6111C12.9042 15.5838 13.738 14.75 14.7653 14.75H36.9736C38.0009 14.75 38.8347 15.5838 38.8347 16.6111C38.8347 17.6384 38.0009 18.4722 36.9736 18.4722Z" fill="white"/>
</svg>
