<svg width="97" height="94" viewBox="0 0 97 94" fill="none" xmlns="http://www.w3.org/2000/svg">
<path d="M0.876709 48.0782C0.876709 69.3528 14.6301 87.3214 33.7287 93.6922C36.1311 94.1135 37.0319 92.6712 37.0319 91.41C37.0319 90.267 36.9719 86.4815 36.9719 82.4548C24.9001 84.677 21.7771 79.5082 20.8161 76.8047C20.2756 75.4224 17.9333 71.1555 15.8913 70.0134C14.2097 69.1116 11.8074 66.8885 15.8313 66.8285C19.615 66.7684 22.3176 70.3137 23.2185 71.7561C27.5427 79.0278 34.4494 76.9858 37.2121 75.7227C37.6325 72.5978 38.8937 70.493 40.2751 69.2918C29.5847 68.0906 18.4138 63.9438 18.4138 45.5548C18.4138 40.3251 20.2756 35.9981 23.3386 32.633C22.8581 31.4319 21.1765 26.5034 23.8191 19.8914C23.8191 19.8914 27.843 18.6301 37.0319 24.8199C40.8757 23.7388 44.9597 23.1974 49.0436 23.1974C53.1276 23.1974 57.2116 23.7388 61.0553 24.8199C70.2443 18.5701 74.2682 19.8923 74.2682 19.8923C76.9108 26.5024 75.2291 31.43 74.7487 32.6321C77.8117 35.9972 79.6735 40.2641 79.6735 45.553C79.6735 64.003 68.4425 68.0888 57.7521 69.2918C59.4938 70.7942 60.9953 73.6789 60.9953 78.186C60.9953 84.6169 60.9352 89.7847 60.9352 91.4081C60.9352 92.6694 61.8361 94.1708 64.2384 93.6904C83.2169 87.3223 96.9703 69.2937 96.9703 48.0792C96.9703 21.5139 75.4694 0 48.9235 0C22.3777 0 0.876709 21.5148 0.876709 48.0782Z" fill="#23262F"/>
</svg>
