<svg width="12" height="12" viewBox="0 0 12 12" fill="none" xmlns="http://www.w3.org/2000/svg">
<path d="M10.2426 1.75735C9.10941 0.624115 7.60263 0 6 0C4.39737 0 2.89059 0.624115 1.75735 1.75735C0.624115 2.89059 0 4.39737 0 6C0 7.60263 0.624115 9.10941 1.75735 10.2426C2.89059 11.3759 4.39737 12 6 12C7.60263 12 9.10941 11.3759 10.2426 10.2426C11.3759 9.10941 12 7.60263 12 6C12 4.39737 11.3759 2.89059 10.2426 1.75735ZM2.60403 10.0616C2.80215 8.35693 4.26782 7.04077 6 7.04077C6.91315 7.04077 7.77182 7.39655 8.41772 8.04236C8.96338 8.5881 9.30753 9.30066 9.39606 10.0616C8.47595 10.8322 7.29126 11.2969 6 11.2969C4.70874 11.2969 3.52414 10.8322 2.60403 10.0616ZM6 6.31659C4.99521 6.31659 4.17764 5.49902 4.17764 4.49423C4.17764 3.48935 4.99521 2.67188 6 2.67188C7.00479 2.67188 7.82236 3.48935 7.82236 4.49423C7.82236 5.49902 7.00479 6.31659 6 6.31659ZM10.0012 9.46719C9.82205 8.74484 9.44843 8.0788 8.91486 7.54523C8.48273 7.1131 7.9715 6.78891 7.41394 6.58575C8.0842 6.1312 8.52548 5.36325 8.52548 4.49423C8.52548 3.10172 7.39252 1.96875 6 1.96875C4.60748 1.96875 3.47452 3.10172 3.47452 4.49423C3.47452 5.36371 3.91617 6.13193 4.58698 6.5864C4.07401 6.77335 3.5993 7.06238 3.19089 7.44287C2.59946 7.99365 2.18875 8.69595 1.99832 9.46664C1.19183 8.53693 0.703125 7.32449 0.703125 6C0.703125 3.07928 3.07928 0.703125 6 0.703125C8.92072 0.703125 11.2969 3.07928 11.2969 6C11.2969 7.32477 10.808 8.53748 10.0012 9.46719Z" fill="#20283A"/>
</svg>
