<svg width="42" height="43" viewBox="0 0 42 43" fill="none" xmlns="http://www.w3.org/2000/svg">
<path opacity="0.3" d="M21 41.9953C32.3218 41.9953 41.5 32.8171 41.5 21.4953C41.5 10.1735 32.3218 0.9953 21 0.9953C9.67816 0.9953 0.5 10.1735 0.5 21.4953C0.5 32.8171 9.67816 41.9953 21 41.9953Z" stroke="white"/>
<path d="M11.2725 21.337C10.9963 21.337 10.7725 21.5609 10.7725 21.837C10.7725 22.1132 10.9963 22.337 11.2725 22.337V21.337ZM30.0817 22.1906C30.277 21.9953 30.277 21.6787 30.0817 21.4835L26.8997 18.3015C26.7045 18.1062 26.3879 18.1062 26.1926 18.3015C25.9974 18.4967 25.9974 18.8133 26.1926 19.0086L29.021 21.837L26.1926 24.6654C25.9974 24.8607 25.9974 25.1773 26.1926 25.3725C26.3879 25.5678 26.7045 25.5678 26.8997 25.3725L30.0817 22.1906ZM11.2725 22.337H29.7282V21.337H11.2725V22.337Z" fill="white"/>
</svg>
