<svg width="91" height="91" viewBox="0 0 91 91" fill="none" xmlns="http://www.w3.org/2000/svg">
<path opacity="0.2" fill-rule="evenodd" clip-rule="evenodd" d="M57.0496 4.7142C52.2881 -0.650804 44.0789 -1.14004 38.7139 3.62146L4.7142 33.7966C-0.650806 38.5581 -1.14004 46.7672 3.62146 52.1323L33.7966 86.132C38.5581 91.497 46.7672 91.9862 52.1323 87.2247L86.132 57.0496C91.497 52.2881 91.9862 44.0789 87.2247 38.7139L57.0496 4.7142ZM47.3139 57.1617L46.4341 71.3351C46.1838 75.4372 40.9521 75.1312 41.4113 70.8547L42.0876 56.8619C20.6717 50.3181 26.2982 22.5406 46.7955 22.5475C66.0805 24.1815 70.1695 52.9702 47.3139 57.1617ZM54.5645 31.8228C65.0659 43.6552 47.5856 59.8525 36.7449 47.6378C26.1888 35.7437 44.3093 20.2678 54.5645 31.8228Z" fill="white"/>
</svg>
