<svg width="103" height="103" viewBox="0 0 103 103" fill="none" xmlns="http://www.w3.org/2000/svg">
<path opacity="0.2" fill-rule="evenodd" clip-rule="evenodd" d="M100.103 50.8911C104.442 43.887 102.282 34.6918 95.2776 30.353L50.891 2.85621C43.887 -1.48265 34.6918 0.677887 30.3529 7.6819L2.85616 52.0685C-1.48271 59.0725 0.677828 68.2677 7.68184 72.6066L52.0684 100.103C59.0724 104.442 68.2677 102.282 72.6065 95.2776L100.103 50.8911ZM39.1828 57.4199L23.2954 61.1115C18.6986 62.1847 17.3153 56.3265 22.1727 55.4259L37.7944 51.5697C37.9551 25.8496 70.3747 22.9092 77.1061 45.4693C81.6482 67.23 51.31 81.195 39.1828 57.4199ZM69.4527 57.0686C59.8834 72.5159 36.3108 58.6036 46.1893 42.6573C55.8084 27.1296 78.7976 41.9836 69.4527 57.0686Z" fill="white"/>
</svg>
