<svg width="56" height="56" viewBox="0 0 56 56" fill="none" xmlns="http://www.w3.org/2000/svg">
<path opacity="0.2" fill-rule="evenodd" clip-rule="evenodd" d="M6.24239 9.69776C1.69024 11.1334 -0.836167 15.9875 0.599498 20.5396L9.69775 49.388C11.1334 53.9402 15.9875 56.4666 20.5396 55.0309L49.388 45.9326C53.9401 44.497 56.4666 39.6429 55.0309 35.0908L45.9326 6.2424C44.497 1.69025 39.6429 -0.836161 35.0908 0.599503L6.24239 9.69776ZM27.1654 25.7546C30.4372 24.7227 32.2531 21.2339 31.2212 17.962C30.1893 14.6902 26.7004 12.8743 23.4286 13.9062C20.1567 14.9381 18.3409 18.4269 19.3728 21.6988C20.4046 24.9706 23.8935 26.7865 27.1654 25.7546ZM42.4391 32.8787C44.6189 39.7903 20.922 47.2639 18.7422 40.3523C14.8887 28.1336 38.6245 20.7834 42.4391 32.8787Z" fill="white"/>
</svg>
