<svg width="114" height="114" viewBox="0 0 114 114" fill="none" xmlns="http://www.w3.org/2000/svg">
<path opacity="0.2" d="M112.084 35.0134C110.276 30.4698 107.136 27.2348 102.663 25.3077L48.5391 1.99408C44.0667 0.0676327 39.5579 0.00816257 35.0137 1.8155C30.47 3.62377 27.2345 6.76453 25.3079 11.237L1.99394 65.3615C0.0673304 69.8342 0.00802728 74.3426 1.8157 78.886C3.62372 83.4303 6.76468 86.6659 11.237 88.5924L23.8659 94.0322C24.6921 94.3881 25.325 94.627 25.7621 94.7498C26.1997 94.8709 26.7181 94.8043 27.3182 94.5499C27.9181 94.2963 28.3955 93.7554 28.7516 92.9287C28.7999 92.8166 29.3411 91.5331 30.3748 89.0822C31.4082 86.6302 32.2326 84.6908 32.848 83.2623L31.4539 82.9294C30.5625 82.7234 29.491 82.3402 28.2398 81.7789C26.9893 81.2177 25.7393 80.5239 24.4918 79.6966C23.2435 78.8689 22.2276 77.7631 21.4424 76.3787C20.6586 74.9929 20.3294 73.4814 20.4558 71.8429L20.4507 70.3024C20.4469 69.277 20.2683 68.0633 19.913 66.6636C19.5583 65.2625 19.0487 64.1962 18.3837 63.4643L18.1104 63.0122C17.9285 62.7112 17.7818 62.3795 17.6693 62.0194C17.5575 61.6588 17.502 61.3225 17.5022 61.0117C17.503 60.6995 17.6897 60.5236 18.0637 60.4836C18.4374 60.4444 19.0179 60.5952 19.8076 60.9354L20.862 61.5897C21.5493 62.0637 22.2849 62.9148 23.0703 64.1448C23.8552 65.3739 24.3456 66.7436 24.542 68.2536C24.7429 70.1676 25.2794 71.7903 26.1534 73.125C27.026 74.46 28.0832 75.3944 29.3233 75.9286C30.5635 76.4627 31.675 76.8301 32.6581 77.0316C33.6407 77.2316 34.6082 77.3133 35.5598 77.2777C36.9826 74.9054 38.7379 73.3653 40.8236 72.6599C38.7787 71.5114 36.9981 70.3439 35.4818 69.1556C33.9666 67.9677 32.5153 66.4742 31.1299 64.6739C29.7437 62.8735 28.7731 60.9637 28.2183 58.9412C27.6636 56.9189 27.5266 54.5206 27.8087 51.7466C28.091 48.9711 28.9201 45.9859 30.2961 42.7914C32.255 38.2438 35.408 35.0116 39.7532 33.096C39.8355 29.0767 41.618 25.2999 45.1016 21.7648C46.3375 21.8959 47.8446 22.8461 49.6224 24.6146C51.4004 26.3839 52.6574 27.7833 53.3952 28.8131C54.1329 29.843 54.7124 30.6948 55.1357 31.3678C59.0528 31.8965 62.8713 32.9621 66.592 34.5648C70.3126 36.1674 73.7107 38.2103 76.7862 40.6937L79.5114 40.2634C81.3665 39.9926 83.4513 39.9104 85.7673 40.0172C88.0831 40.1238 89.6941 40.5724 90.6013 41.3644C90.4624 46.3403 88.9624 50.2387 86.0973 53.0591C87.6903 57.533 87.5081 62.0447 85.5492 66.5923C84.173 69.7873 82.5692 72.4501 80.7387 74.5796C78.9085 76.7099 77.0628 78.255 75.2008 79.213C73.34 80.1718 71.2796 80.7648 69.0195 80.9953C66.7595 81.2244 64.6768 81.1973 62.7725 80.9105C60.8677 80.6252 58.7957 80.1349 56.5561 79.4378C57.781 81.9698 57.6089 85.0586 56.0382 88.7051L50.2338 102.18C49.9585 102.819 49.8293 103.376 49.8472 103.852C49.8665 104.328 50.0496 104.729 50.3976 105.058C50.7481 105.387 51.0724 105.638 51.3766 105.813C51.6807 105.989 52.132 106.206 52.7335 106.465L65.3624 111.905C69.8347 113.831 74.3438 113.891 78.8866 112.082C83.4308 110.274 86.6665 107.133 88.593 102.661L111.906 48.5389C113.832 44.0662 113.892 39.5568 112.084 35.0134Z" fill="white"/>
</svg>
