<svg width="90" height="90" viewBox="0 0 90 90" fill="none" xmlns="http://www.w3.org/2000/svg">
<path opacity="0.2" d="M63.2661 1.57336C59.6807 0.074558 56.0986 0.0590776 52.5175 1.52836L9.19301 19.304C5.61303 20.7729 3.07293 23.3002 1.5733 26.8854C0.0744971 30.4707 0.0594688 34.0539 1.52837 37.634L19.3043 80.9592C20.7733 84.5395 23.3005 87.0793 26.8854 88.5783C30.4709 90.0776 34.0543 90.0925 37.6342 88.6237L47.7433 84.476C48.4047 84.2047 48.8922 83.9781 49.2048 83.7981C49.5168 83.6169 49.7672 83.2855 49.9563 82.8033C50.1458 82.3217 50.104 81.7499 49.8325 81.0882C49.7957 80.9984 49.3676 79.9777 48.5504 78.0283C47.7325 76.0785 47.0895 74.5323 46.6203 73.3888L45.6564 73.9953C45.0438 74.387 44.2306 74.7825 43.2164 75.1809C42.2026 75.5792 41.1138 75.9033 39.9505 76.1519C38.7866 76.4006 37.594 76.3629 36.3714 76.0392C35.1487 75.714 34.1074 75.0607 33.2472 74.0782L32.3696 73.2248C31.7852 72.6569 30.9967 72.0836 30.0043 71.5074C29.0116 70.93 28.1227 70.6267 27.3375 70.5974L26.9289 70.5013C26.6568 70.4373 26.3869 70.3363 26.1199 70.2C25.8529 70.063 25.6311 69.9076 25.4547 69.7347C25.2779 69.5607 25.2818 69.3569 25.467 69.1223C25.6524 68.8883 26.0607 68.6425 26.6929 68.3831L27.6506 68.1481C28.3018 68.0213 29.194 68.0766 30.3291 68.3144C31.4633 68.5519 32.5137 69.0347 33.4803 69.7626C34.679 70.7125 35.8986 71.3098 37.1423 71.5554C38.3856 71.8019 39.5038 71.721 40.4965 71.3137C41.4892 70.9064 42.3157 70.4794 42.9766 70.0332C43.6363 69.5863 44.2205 69.0823 44.7292 68.5222C44.173 66.3955 44.2742 64.5427 45.0329 62.9661C43.244 63.489 41.5913 63.8511 40.0736 64.0516C38.5568 64.2518 36.902 64.2458 35.1096 64.0317C33.3166 63.8181 31.6925 63.3077 30.2357 62.4985C28.779 61.6893 27.3409 60.434 25.9225 58.7319C24.5033 57.0288 23.2689 54.8985 22.2198 52.3414C20.7262 48.7012 20.6434 45.114 21.971 41.5817C19.7343 39.3008 18.5804 36.1892 18.5094 32.2459C19.2708 31.617 20.6481 31.2893 22.6407 31.2628C24.6337 31.2366 26.1271 31.3007 27.1219 31.4542C28.1168 31.6078 28.9227 31.7521 29.5401 31.8859C32.0178 29.9553 34.7455 28.3793 37.7238 27.1573C40.702 25.9354 43.7511 25.1413 46.8708 24.7753L48.1413 22.9886C49.0188 21.7846 50.131 20.555 51.479 19.2992C52.8267 18.0433 53.977 17.3779 54.931 17.303C57.6794 20.1478 59.0595 23.1666 59.0685 26.3613C62.4945 27.9436 64.9553 30.555 66.4488 34.1952C67.4982 36.7528 68.1188 39.1437 68.3105 41.3668C68.5029 43.5903 68.3544 45.4973 67.8633 47.0872C67.3735 48.6768 66.5649 50.1765 65.4395 51.588C64.3133 52.9988 63.1402 54.1664 61.9188 55.0884C60.698 56.0114 59.2678 56.9155 57.627 57.7998C59.7458 58.5117 61.4041 60.3263 62.6017 63.2453L67.0273 74.0317C67.2372 74.5433 67.4814 74.9261 67.7615 75.1803C68.0425 75.434 68.3721 75.5529 68.7526 75.5384C69.1342 75.5222 69.457 75.4775 69.7256 75.4022C69.9944 75.3272 70.3684 75.1915 70.8499 74.9939L80.959 70.8463C84.539 69.3774 87.0792 66.85 88.5774 63.2649C90.0767 59.6794 90.0916 56.096 88.6228 52.516L70.8477 9.19294C69.3785 5.61293 66.8509 3.07236 63.2661 1.57336Z" fill="white"/>
</svg>
