<svg width="91" height="92" viewBox="0 0 91 92" fill="none" xmlns="http://www.w3.org/2000/svg">
<path opacity="0.2" fill-rule="evenodd" clip-rule="evenodd" d="M8.76608 20.0301C1.71044 22.8984 -1.68407 30.9433 1.18422 37.9989L19.3615 82.7127C22.2298 89.7683 30.2747 93.1628 37.3303 90.2945L82.0441 72.1173C89.0997 69.249 92.4942 61.204 89.6259 54.1484L71.4487 9.43466C68.5804 2.37903 60.5355 -1.01548 53.4798 1.85281L8.76608 20.0301ZM21.0887 58.03C41.6237 72.0765 66.2691 61.661 71.2927 37.6091C71.5702 36.2833 70.9965 34.8719 69.8826 34.1117C49.2172 20.0599 24.7974 30.6287 19.6927 54.5385C19.4111 55.8543 19.9708 57.2597 21.0887 58.03ZM26.2422 53.8938C32.7265 35.185 47.2172 29.0842 64.7291 38.2479C58.501 56.8408 43.8037 62.6057 26.2422 53.8938ZM44.5631 35.7853C34.3363 36.9101 31.4892 49.7897 40.438 55.1329C49.2435 60.3244 60.9915 49.6 53.5272 39.5593C52.0075 49.0766 38.8711 43.3596 44.5631 35.7853Z" fill="white"/>
</svg>
