<svg width="13" height="15" viewBox="0 0 13 15" fill="none" xmlns="http://www.w3.org/2000/svg">
<path d="M7.26065 4.87682H8.61027C8.77208 4.87682 8.90324 4.74566 8.90324 4.58385V3.23197C8.90324 3.07017 8.77208 2.93901 8.61027 2.93901H7.26065C7.09884 2.93901 6.96768 3.07017 6.96768 3.23197V4.58385C6.96768 4.74566 7.09884 4.87682 7.26065 4.87682ZM7.55362 3.52497H8.3173V4.29091H7.55362V3.52497Z" fill="#20283A"/>
<path d="M4.60236 4.87682H5.95198C6.11378 4.87682 6.24494 4.74566 6.24494 4.58385V3.23197C6.24494 3.07017 6.11378 2.93901 5.95198 2.93901H4.60236C4.44055 2.93901 4.30939 3.07017 4.30939 3.23197V4.58385C4.30939 4.74566 4.44055 4.87682 4.60236 4.87682ZM4.89532 3.52497H5.65901V4.29091H4.89532V3.52497Z" fill="#20283A"/>
<path d="M7.26065 7.85285H8.61027C8.77208 7.85285 8.90324 7.72169 8.90324 7.55988V6.20803C8.90324 6.04623 8.77208 5.91507 8.61027 5.91507H7.26065C7.09884 5.91507 6.96768 6.04623 6.96768 6.20803V7.55988C6.96768 7.72166 7.09884 7.85285 7.26065 7.85285ZM7.55362 6.50097H8.3173V7.26688H7.55362V6.50097Z" fill="#20283A"/>
<path d="M4.60236 7.85285H5.95198C6.11378 7.85285 6.24494 7.72169 6.24494 7.55988V6.20803C6.24494 6.04623 6.11378 5.91507 5.95198 5.91507H4.60236C4.44055 5.91507 4.30939 6.04623 4.30939 6.20803V7.55988C4.30939 7.72166 4.44055 7.85285 4.60236 7.85285ZM4.89532 6.50097H5.65901V7.26688H4.89532V6.50097Z" fill="#20283A"/>
<path d="M7.26065 10.8287H8.61027C8.77208 10.8287 8.90324 10.6975 8.90324 10.5357V9.18385C8.90324 9.02205 8.77208 8.89089 8.61027 8.89089H7.26065C7.09884 8.89089 6.96768 9.02205 6.96768 9.18385V10.5357C6.96768 10.6975 7.09884 10.8287 7.26065 10.8287ZM7.55362 9.47685H8.3173V10.2428H7.55362V9.47685Z" fill="#20283A"/>
<path d="M5.95198 10.8287C6.11378 10.8287 6.24494 10.6975 6.24494 10.5357V9.18385C6.24494 9.02205 6.11378 8.89089 5.95198 8.89089H4.60236C4.44055 8.89089 4.30939 9.02205 4.30939 9.18385V10.5357C4.30939 10.6975 4.44055 10.8287 4.60236 10.8287H5.95198ZM4.89532 9.47685H5.65901V10.2428H4.89532V9.47685Z" fill="#20283A"/>
<path d="M12.5923 14.4141H12.3199V5.56488C12.3199 5.40308 12.1887 5.27191 12.0269 5.27191H10.1182V1.63937C10.1182 1.47756 9.987 1.3464 9.8252 1.3464H9.201V0.292969C9.201 0.131162 9.06983 0 8.90803 0H4.3035C4.14169 0 4.01053 0.131162 4.01053 0.292969V1.3464H3.38636C3.22455 1.3464 3.09339 1.47756 3.09339 1.63937V7.27787H1.48593C1.32412 7.27787 1.19296 7.40903 1.19296 7.57084V14.4141H0.407715C0.245908 14.4141 0.114746 14.5452 0.114746 14.707C0.114746 14.8688 0.245908 15 0.407715 15H12.5923C12.7541 15 12.8853 14.8688 12.8853 14.707C12.8853 14.5452 12.7541 14.4141 12.5923 14.4141ZM4.59646 0.585938H8.61503V1.3464H4.59646V0.585938ZM1.7789 7.86381H3.09339V14.4141H1.7789V7.86381ZM3.67933 1.93233H9.53223V14.4141H8.07383V12.4811C8.07383 12.3193 7.94267 12.1881 7.78086 12.1881H5.43066C5.26886 12.1881 5.13769 12.3193 5.13769 12.4811V14.4141H3.67933V1.93233ZM5.72366 14.4141V12.7741H7.48792V14.4141H5.72366ZM10.1182 14.4141V5.85785H11.7339V14.4141H10.1182Z" fill="#20283A"/>
</svg>
