<svg width="16" height="17" viewBox="0 0 16 17" fill="none" xmlns="http://www.w3.org/2000/svg">
<path d="M15.3471 16.8755C15.18 16.8755 15.0129 16.8111 14.8856 16.6829L0.191466 2.04996C-0.0637743 1.79296 -0.0637994 1.37752 0.19141 1.12052C0.318693 0.992343 0.485783 0.927917 0.652904 0.927917C0.820024 0.927917 0.987113 0.992343 1.1144 1.12052L15.8086 15.7534C16.0638 16.0104 16.0638 16.4259 15.8086 16.6829C15.6813 16.8111 15.5142 16.8755 15.3471 16.8755Z" fill="#C4C4C4"/>
<path d="M0.652898 16.8755C0.820018 16.8755 0.987118 16.8111 1.1144 16.6829L15.8085 2.04996C16.0638 1.79296 16.0638 1.37752 15.8086 1.12052C15.6813 0.992343 15.5142 0.927917 15.3471 0.927917C15.18 0.927917 15.0129 0.992343 14.8856 1.12052L0.191434 15.7534C-0.0638046 16.0104 -0.0638065 16.4259 0.191403 16.6829C0.318686 16.8111 0.485777 16.8755 0.652898 16.8755Z" fill="#C4C4C4"/>
</svg>
