<svg width="18" height="14" viewBox="0 0 18 14" fill="none" xmlns="http://www.w3.org/2000/svg">
<path d="M1.0547 4.7462C1.0547 3.87385 1.76441 3.16415 2.63675 3.16415H11.7775C12.6498 3.16415 13.3595 3.87385 13.3595 4.7462V5.27355H14.4142V3.51571C14.4142 2.7403 13.7834 2.10945 13.008 2.10945H6.67977V1.40631C6.67977 0.630897 6.04892 4.57764e-05 5.2735 4.57764e-05H1.40627C0.630851 4.57764e-05 0 0.630897 0 1.40631V11.0417L1.0547 9.35302V4.7462Z" fill="#83CFA2"/>
<path d="M11.7775 4.21889H2.63673C2.34549 4.21889 2.10938 4.45501 2.10938 4.74625V7.66439L3.13795 6.01755C3.42898 5.55168 3.9306 5.2736 4.47978 5.2736H12.3048V4.74625C12.3048 4.45501 12.0687 4.21889 11.7775 4.21889Z" fill="#83CFA2"/>
<path d="M13.8876 13.7112H0.528054C0.33638 13.7112 0.159788 13.6072 0.066869 13.4396C-0.0260501 13.2719 -0.0207414 13.0671 0.0807911 12.9045L4.03325 6.57629C4.12961 6.42202 4.29864 6.32829 4.48054 6.32829H16.7693C17.2227 6.32829 17.6379 6.57632 17.8528 6.97556C18.0677 7.37484 18.0461 7.85799 17.7964 8.23642L14.3273 13.475C14.2296 13.6226 14.0645 13.7112 13.8876 13.7112Z" fill="#83CFA2"/>
</svg>
