<svg width="19" height="17" viewBox="0 0 19 17" fill="none" xmlns="http://www.w3.org/2000/svg">
<path d="M15.6246 10.5446L14.4544 10.3745L13.9312 9.31414C13.866 9.1821 13.7315 9.0985 13.5843 9.0985C13.4371 9.0985 13.3025 9.1821 13.2373 9.31414L12.714 10.3745L11.5438 10.5446C11.3981 10.5657 11.277 10.6678 11.2315 10.8078C11.186 10.9479 11.224 11.1016 11.3294 11.2044L12.1762 12.0297L11.9763 13.1952C11.9514 13.3404 12.011 13.487 12.1301 13.5736C12.2493 13.6601 12.4071 13.6716 12.5374 13.603L13.5842 13.0528L14.6309 13.603C14.6875 13.6328 14.7493 13.6474 14.8108 13.6474C14.8112 13.6474 14.8116 13.6474 14.8119 13.6474C15.0256 13.6474 15.1987 13.4742 15.1987 13.2606C15.1987 13.2282 15.1947 13.1966 15.1872 13.1665L14.9921 12.0297L15.8389 11.2044C15.9443 11.1016 15.9822 10.9478 15.9367 10.8078C15.8915 10.6678 15.7703 10.5657 15.6246 10.5446Z" fill="#83CFA2"/>
<path d="M13.5844 5.95733C11.8057 5.95733 10.2246 6.81935 9.23668 8.14749C8.84195 8.06445 8.43299 8.02046 8.01392 8.02046C7.56813 8.02046 7.13384 8.07023 6.71595 8.16389C4.74974 8.60453 3.14937 10.0241 2.45529 11.8823C2.21447 12.527 2.08243 13.2243 2.08243 13.9519C2.08243 14.3792 2.42883 14.7256 2.8561 14.7256H9.33411C10.3268 15.9814 11.863 16.7887 13.5844 16.7887C16.5706 16.7887 19.0001 14.3593 19.0001 11.373C19.0001 8.38681 16.5706 5.95733 13.5844 5.95733ZM13.5844 15.2414C12.8833 15.2414 12.2258 15.053 11.6582 14.7256C10.4987 14.0568 9.716 12.8051 9.716 11.373C9.716 10.341 10.123 9.4028 10.7841 8.7084C11.4891 7.96779 12.4834 7.50467 13.5844 7.50467C15.7174 7.50467 17.4527 9.24002 17.4527 11.373C17.4527 13.5061 15.7174 15.2414 13.5844 15.2414Z" fill="#83CFA2"/>
<path d="M1.68256 3.23658C1.68256 4.45723 2.62989 5.46006 3.8279 5.55022C3.44715 4.86413 3.2299 4.07529 3.2299 3.23658C3.2299 2.39786 3.44715 1.60898 3.8279 0.922935C2.62989 1.01304 1.68256 2.01593 1.68256 3.23658Z" fill="#83CFA2"/>
<path d="M4.82199 7.18943C4.55533 7.13388 4.28135 7.10489 4.0036 7.10489C1.796 7.10494 0 8.90094 0 11.1086C0 11.5359 0.346399 11.8823 0.773672 11.8823H0.82654C1.42495 9.80733 2.89962 8.1004 4.82199 7.18943Z" fill="#83CFA2"/>
<path d="M5.37525 1.36574C4.9993 1.89441 4.77725 2.53986 4.77725 3.23653C4.77725 3.9332 4.9993 4.57864 5.37525 5.10732C5.96236 5.93288 6.92595 6.47306 8.01383 6.47306C9.79849 6.47306 11.2504 5.02118 11.2504 3.23653C11.2504 1.45187 9.79849 0 8.01383 0C6.92589 5.15782e-05 5.96236 0.540178 5.37525 1.36574Z" fill="#83CFA2"/>
</svg>
