<svg width="274" height="113" viewBox="0 0 274 113" fill="none" xmlns="http://www.w3.org/2000/svg">
<path d="M273.977 0.0141601L273.354 0.0141602C273.577 0.655848 273.777 1.31212 273.977 1.95381L273.977 0.0141601Z" fill="url(#paint0_linear_346_270)"/>
<path d="M273.979 57.8686C271.197 66.7501 267.102 75.4421 261.649 83.8715C252.347 98.2804 239.573 111.406 223.549 122.971L224.751 122.971C240.574 111.45 253.237 98.4116 262.473 84.1049C267.391 76.4776 271.219 68.646 273.979 60.6541L273.979 57.8686Z" fill="url(#paint1_linear_346_270)"/>
<path d="M273.979 19.5857C273.333 12.95 272.042 6.40187 270.106 0.014159L268.971 0.014159C271.62 8.74987 273.088 17.7481 273.289 26.9213C273.467 34.4028 272.977 41.0822 271.842 47.3241C270.307 55.5056 267.547 63.6142 263.586 71.4457C259.669 79.2043 254.573 86.715 248.452 93.759C240.886 102.466 231.784 110.851 220.634 119.427C219.054 120.637 217.474 121.804 215.872 122.956L217.385 122.956C218.765 121.95 220.122 120.929 221.48 119.893C232.674 111.289 241.798 102.859 249.409 94.1236C255.574 87.0359 260.693 79.4814 264.632 71.6791C268.615 63.8038 271.397 55.6369 272.933 47.4116C273.378 45.0344 273.712 42.6135 273.956 40.0905L273.956 19.5857L273.979 19.5857Z" fill="url(#paint2_linear_346_270)"/>
<path d="M210.218 122.956C213.334 120.71 216.405 118.347 219.409 115.854C227.399 109.247 237.702 100.365 246.627 90.2443C258.956 76.2438 266.678 60.2454 268.993 43.9844C269.994 36.8383 269.838 29.8235 269.549 23.9025C269.148 15.7064 267.88 7.71442 265.788 0.0141589L264.653 0.0141589C266.767 7.71442 268.036 15.7209 268.436 23.9316C268.726 29.8235 268.881 36.8092 267.88 43.9261C265.588 60.0849 257.91 75.9667 245.67 89.8797C236.768 99.9571 226.486 108.81 218.541 115.401C215.314 118.07 212.043 120.579 208.705 122.956L210.218 122.956Z" fill="url(#paint3_linear_346_270)"/>
<path d="M203.608 122.957C208.326 119.617 212.889 115.957 217.473 111.859L219.075 110.415C227.51 102.86 236.256 95.0435 243.978 86.4245C256.33 72.599 263.652 56.7464 265.187 40.5875C265.788 33.9665 265.298 27.3308 264.831 20.9139C264.297 13.6804 263.184 6.7093 261.537 0.029906L260.18 0.029906C261.849 6.72388 262.962 13.7095 263.496 20.9577C263.963 27.36 264.453 33.9665 263.852 40.5438C262.339 56.5568 255.061 72.2782 242.821 85.987C235.121 94.5623 226.419 102.365 217.985 109.904L216.383 111.348C211.576 115.665 206.746 119.501 201.783 122.972L203.608 122.972L203.608 122.957Z" fill="url(#paint4_linear_346_270)"/>
<path d="M197.111 122.956C203.387 118.683 209.307 113.768 215.404 107.803C218.075 105.193 220.901 102.538 223.616 99.9717C229.492 94.4444 235.567 88.713 241.198 82.5295C247.34 75.748 252.191 68.354 255.596 60.5808C258.979 52.8951 260.871 45.0053 261.227 37.1592C261.449 31.909 260.893 26.7609 260.314 21.3211C260.203 20.1836 260.07 19.0461 259.958 17.8939C259.313 11.5791 258.378 5.64352 257.088 0.0141588L255.73 0.0141588C257.021 5.6581 257.978 11.6229 258.623 17.9523C258.734 19.1044 258.868 20.2419 258.979 21.3795C259.558 26.8046 260.114 31.9382 259.892 37.13C259.536 44.9032 257.644 52.7201 254.306 60.3329C250.923 68.0477 246.116 75.3542 240.04 82.0773C234.432 88.2317 228.379 93.9486 222.504 99.4613C219.766 102.028 216.962 104.682 214.269 107.307C207.905 113.505 201.785 118.566 195.219 122.941L197.111 122.941L197.111 122.956Z" fill="url(#paint5_linear_346_270)"/>
<path d="M190.858 122.956C200.894 116.568 207.86 109.772 213.446 103.793C217.118 99.855 221.035 96.0924 225.152 92.111C229.581 87.838 234.165 83.4336 238.527 78.7085C250.789 65.3643 257.488 49.395 257.421 33.7465C257.377 29.3276 256.732 25.04 256.042 20.4898C255.775 18.6669 255.485 16.7856 255.24 14.8897C254.551 9.55198 253.727 4.63723 252.748 0.0141587L251.168 0.0141588C252.147 4.65182 252.993 9.61032 253.683 14.9772C253.927 16.8876 254.217 18.769 254.484 20.5919C255.174 25.1129 255.819 29.386 255.864 33.7465C255.93 49.2054 249.298 64.9851 237.192 78.1835C232.852 82.8795 228.29 87.2838 223.861 91.5423C219.722 95.5382 215.805 99.3154 212.111 103.268C206.369 109.407 199.136 116.451 188.588 122.956L190.858 122.956Z" fill="url(#paint6_linear_346_270)"/>
<path d="M184.27 122.957C184.759 122.665 185.271 122.388 185.761 122.097C196.91 115.519 204.054 108.402 211.376 99.7541C215.471 94.9123 220.144 90.3621 225.085 85.5495C228.601 82.1368 232.229 78.593 235.745 74.8449C241.909 68.2239 246.583 60.9466 249.632 53.2171C252.636 45.6044 253.927 37.9041 253.46 30.3351C253.215 26.4704 252.458 22.7369 251.657 18.7993C251.212 16.568 250.722 14.2637 250.366 11.9011C249.721 7.81767 249.031 3.86545 248.23 0.0299058L246.65 0.0299058C247.451 3.89462 248.141 7.89059 248.808 12.0032C249.187 14.3658 249.654 16.6846 250.121 18.9305C250.923 22.8536 251.679 26.5579 251.902 30.3788C252.347 37.8458 251.078 45.4439 248.118 52.9692C245.114 60.5965 240.485 67.7864 234.41 74.3199C230.893 78.0534 227.288 81.5827 223.794 84.9953C218.831 89.8225 214.158 94.3873 210.018 99.2728C202.763 107.834 195.686 114.878 184.715 121.353C183.78 121.907 182.823 122.447 181.866 122.972L184.27 122.972L184.27 122.957Z" fill="url(#paint7_linear_346_270)"/>
<path d="M177.17 122.957C180.13 121.484 182.978 119.909 185.693 118.217C197.11 111.129 203.631 103.21 209.328 95.6998C213.512 90.1871 218.697 85.1265 224.172 79.7743C227.065 76.9596 230.047 74.0428 232.963 70.9656C245.225 57.986 251.278 41.9292 249.52 26.9079C249.119 23.4369 248.251 20.1118 247.317 16.5826C246.671 14.1033 246.004 11.5365 245.492 8.89687C244.913 5.86344 244.357 2.9175 243.756 0.0299057L242.176 0.0299058C242.777 2.96125 243.355 5.95094 243.934 9.02813C244.446 11.697 245.114 14.2783 245.759 16.7721C246.671 20.2723 247.539 23.5828 247.94 27.01C249.654 41.8272 243.712 57.6652 231.605 70.4552C228.69 73.5178 225.707 76.42 222.837 79.2347C217.317 84.6161 212.11 89.7058 207.881 95.2769C202.251 102.7 195.797 110.546 184.581 117.517C181.376 119.501 178.016 121.324 174.499 123.001L177.17 123.001L177.17 122.957Z" fill="url(#paint8_linear_346_270)"/>
<path d="M168.87 122.956C174.857 120.521 180.443 117.633 185.561 114.293C196.065 107.439 201.562 99.9573 207.171 91.6153C211.221 85.5922 216.762 80.1962 222.638 74.4794C225.086 72.1022 227.6 69.6375 230.115 67.0562C236.302 60.6101 240.797 53.4495 243.446 45.7784C246.027 38.3552 246.739 30.655 245.493 23.4797C244.937 20.3004 243.958 17.2816 242.934 14.0877C242.088 11.4481 241.198 8.72088 240.575 5.89162C240.152 4.02489 239.751 2.14358 239.351 0.306019C239.329 0.203932 239.306 0.116429 239.284 0.014342L237.927 0.014342C237.949 0.145596 237.993 0.291433 238.016 0.422687C238.416 2.24567 238.817 4.14157 239.24 6.0083C239.885 8.88131 240.753 11.6231 241.621 14.2627C242.645 17.442 243.624 20.4463 244.158 23.5818C245.382 30.6404 244.692 38.2531 242.133 45.5742C239.507 53.1432 235.078 60.2164 228.958 66.5749C226.465 69.1563 223.951 71.6063 221.503 73.9835C215.605 79.7295 210.019 85.1547 205.924 91.2653C200.361 99.5344 194.93 106.928 184.604 113.681C179.018 117.327 172.876 120.433 166.266 122.971L168.87 122.971L168.87 122.956Z" fill="url(#paint9_linear_346_270)"/>
<path d="M158.433 122.956C160.547 122.344 162.639 121.658 164.709 120.915C172.386 118.158 179.374 114.614 185.494 110.4C195.91 103.239 200.361 95.6116 205.101 87.5468C208.84 81.1736 214.581 75.6172 220.657 69.7253C222.838 67.6253 225.086 65.4523 227.311 63.1626C239.596 50.6059 244.915 34.4908 241.532 20.0528C240.842 17.1069 239.774 14.336 238.616 11.39C237.548 8.66285 236.458 5.84817 235.701 2.87307C235.456 1.92512 235.212 0.962591 234.989 5.81818e-05L233.631 5.82302e-05C233.876 1.00634 234.121 2.01263 234.388 3.01891C235.167 6.02318 236.258 8.86703 237.326 11.6088C238.461 14.5255 239.529 17.2965 240.219 20.1841C243.557 34.4179 238.305 50.3143 226.198 62.6959C223.973 64.971 221.725 67.144 219.566 69.2441C213.446 75.1651 207.66 80.7653 203.855 87.2405C199.181 95.2324 194.752 102.772 184.515 109.802C178.484 113.943 171.585 117.429 164.041 120.142C161.103 121.206 158.077 122.14 154.983 122.942L158.433 122.942L158.433 122.956Z" fill="url(#paint10_linear_346_270)"/>
<path d="M38.7462 113.112C40.6824 113.258 42.6853 113.389 44.5992 113.506C48.0487 113.725 51.6094 113.958 55.1479 114.279C63.7828 115.066 73.0407 116.321 83.4337 118.144C86.3046 118.639 89.1309 119.208 91.846 119.748C96.2302 120.623 100.37 121.44 104.754 122.052C107.447 122.431 110.117 122.723 112.81 122.956L137.891 122.956C138.559 122.898 139.226 122.84 139.894 122.767C148.729 121.862 157.208 119.952 165.086 117.079C172.653 114.323 179.463 110.764 185.36 106.491C194.885 99.5638 198.557 92.2281 202.452 84.4695L202.942 83.4924C206.324 76.7693 212.244 71.0816 218.542 65.0584C220.478 63.2063 222.481 61.2812 224.484 59.2687C236.858 46.7995 241.732 30.874 237.503 16.6547C236.68 13.913 235.5 11.3316 234.254 8.58987C232.985 5.84811 231.695 3.01885 230.805 -9.45899e-07L229.67 -9.03725e-07L229.67 0.0145838C230.582 3.10635 231.895 5.99395 233.186 8.79404C234.432 11.5066 235.612 14.0734 236.413 16.786C238.416 23.5529 238.349 30.9615 236.19 38.2096C233.987 45.6182 229.603 52.7643 223.549 58.8603C221.547 60.8729 219.566 62.7834 217.63 64.6355C211.309 70.7024 205.323 76.4338 201.896 83.2591L201.406 84.2362C197.556 91.9219 193.906 99.1992 184.537 105.995C178.728 110.21 172.008 113.725 164.552 116.437C156.785 119.267 148.44 121.148 139.738 122.037C128.388 123.19 116.727 122.956 105.021 121.323C100.681 120.725 96.564 119.908 92.2021 119.033C89.4647 118.494 86.6384 117.925 83.7453 117.429C73.3078 115.606 64.0276 114.337 55.326 113.55C51.7652 113.229 48.1822 112.995 44.7327 112.762C42.8188 112.631 40.8159 112.514 38.8797 112.368C27.6856 111.537 13.7541 110.516 1.44727 107.877C0.97992 107.774 0.490316 107.672 0.0229664 107.556L0.0229666 108.329C0.379042 108.402 0.735118 108.489 1.09119 108.562C13.5093 111.26 27.5076 112.281 38.7462 113.112Z" fill="url(#paint11_linear_346_270)"/>
<path d="M233.542 13.242C232.607 10.6607 231.317 8.2398 229.959 5.68763C228.98 3.85007 227.978 1.96875 227.111 0.0145215L225.953 0.0145215C226.843 2.05626 227.889 4.01049 228.891 5.92097C230.248 8.45856 231.517 10.8649 232.452 13.4025C234.855 20.0089 235.078 27.3154 233.097 34.5344C231.072 41.8993 226.821 48.9724 220.746 54.9955C218.943 56.7894 217.118 58.5102 215.382 60.1728C208.617 66.5897 202.786 72.1316 199.782 79.2485C199.515 79.8756 199.248 80.5173 199.003 81.1444C195.954 88.5384 193.061 95.524 184.426 102.145C172.965 110.91 157.32 116.583 140.362 118.114C129.123 119.121 117.617 118.669 106.156 116.743C102.106 116.058 98.2557 115.183 94.2053 114.264C91.379 113.623 88.4413 112.952 85.4369 112.354C75.4223 110.37 66.3646 109.043 57.7743 108.285C53.9465 107.949 50.1187 107.745 46.4022 107.541C44.8443 107.454 43.242 107.366 41.6841 107.279L40.3266 107.191C28.2646 106.476 15.8019 105.718 4.34072 103.399C2.87191 103.093 1.42535 102.772 0.0455556 102.437L0.0455558 103.21C12.7085 106.272 26.9515 107.133 40.2376 107.92L41.5951 108.008C43.153 108.095 44.7776 108.183 46.3354 108.27C50.0297 108.474 53.8575 108.679 57.6408 109.014C66.1643 109.758 75.1553 111.085 85.1254 113.054C88.1075 113.652 91.0451 114.308 93.8492 114.95C97.9441 115.883 101.794 116.758 105.889 117.444C113.5 118.712 121.111 119.354 128.678 119.354C132.661 119.354 136.601 119.179 140.517 118.829C157.743 117.283 173.632 111.522 185.272 102.612C194.085 95.8594 196.978 88.8009 200.071 81.3339C200.338 80.7068 200.583 80.0652 200.85 79.438C203.788 72.4378 209.574 66.9397 216.272 60.5812C218.031 58.9186 219.833 57.1977 221.658 55.4039C227.8 49.3079 232.14 42.1326 234.188 34.6657C236.213 27.3446 235.968 19.9506 233.542 13.242Z" fill="url(#paint12_linear_346_270)"/>
<path d="M229.491 9.84592C228.445 7.39583 226.977 5.01867 225.575 2.72901C225.041 1.8394 224.484 0.935199 223.95 0.031002L222.993 0.031002C223.572 1.0227 224.173 1.98524 224.751 2.94777C226.22 5.33952 227.6 7.60001 228.646 10.0063C231.428 16.467 231.962 23.6714 230.181 30.8612C228.356 38.1969 224.173 45.2263 218.097 51.1619C216.428 52.7953 214.759 54.3703 213.134 55.8725C206.258 62.3185 200.316 67.875 197.845 75.2544C197.556 76.1294 197.267 77.0336 196.977 77.894C194.663 85.0693 192.46 91.8362 184.448 98.3406C173.41 107.28 157.987 112.939 141.051 114.252C130.057 115.112 118.396 114.412 107.291 112.224C103.463 111.466 99.8577 110.533 96.0521 109.541C93.159 108.797 90.1769 108.01 87.0835 107.324C77.4472 105.18 68.6566 103.78 60.1998 103.066C56.1717 102.716 52.1435 102.555 48.249 102.395C46.9805 102.337 45.7119 102.293 44.4657 102.234C43.3752 102.191 42.2624 102.132 41.1497 102.089C27.4408 101.476 12.6191 100.82 0.0229716 97.3051L0.0229717 97.9468C12.6637 101.403 27.4185 102.059 41.0829 102.672C42.1957 102.716 43.3084 102.774 44.3989 102.818C45.6452 102.876 46.9137 102.934 48.1822 102.978C52.0768 103.139 56.0826 103.299 60.0662 103.649C68.4563 104.364 77.1801 105.749 86.7719 107.878C89.8431 108.564 92.8252 109.337 95.6961 110.081C99.5239 111.072 103.151 112.02 107.001 112.779C115.102 114.368 123.514 115.185 131.749 115.185C134.909 115.185 138.047 115.068 141.118 114.82C158.276 113.479 173.899 107.762 185.093 98.7052C193.239 92.0987 195.464 85.2589 197.801 78.0107C198.09 77.1503 198.379 76.2607 198.669 75.371C201.117 68.1083 206.992 62.5956 213.824 56.2079C215.449 54.6912 217.118 53.1307 218.787 51.4827C224.952 45.4742 229.18 38.3719 231.005 30.9487C232.852 23.6714 232.318 16.3795 229.491 9.84592Z" fill="url(#paint13_linear_346_270)"/>
<path d="M225.53 6.41719C224.417 4.21503 222.949 2.07121 221.524 0.0148885L220.545 0.0148885C222.103 2.23163 223.549 4.34628 224.684 6.60677C227.867 12.907 228.69 20.0093 227.11 27.1554C225.486 34.4473 221.413 41.4038 215.293 47.2811C213.713 48.7978 212.155 50.2416 210.642 51.6416C203.676 58.0731 197.667 63.6295 195.731 71.2423C195.464 72.3215 195.197 73.4299 194.952 74.4945C193.328 81.4801 191.792 88.0866 184.337 94.4889C173.721 103.589 158.566 109.219 141.674 110.312C130.77 111.027 119.264 110.094 108.426 107.629C104.798 106.798 101.393 105.806 97.8103 104.756C94.8949 103.895 91.8905 103.02 88.7526 102.233C79.5836 99.9579 70.793 98.4557 62.6478 97.7849C58.4639 97.4349 54.28 97.3182 50.2296 97.2161C49.2282 97.1869 48.249 97.1578 47.2698 97.1286C45.6674 97.0848 44.0651 97.0411 42.4405 96.9973C28.1307 96.6036 12.5746 96.1806 0.0229697 92.0243L0.0229698 92.6805C12.6414 96.7494 28.1529 97.1723 42.396 97.5661C44.0206 97.6099 45.6452 97.6536 47.2253 97.6974C48.2045 97.7265 49.2059 97.7557 50.1851 97.7849C54.2132 97.9015 58.3749 98.0036 62.5143 98.3536C70.615 99.0245 79.3166 100.497 88.4188 102.758C91.5344 103.531 94.5166 104.406 97.4319 105.266C100.881 106.287 104.464 107.323 108.136 108.169C116.705 110.108 125.673 111.114 134.442 111.114C136.912 111.114 139.338 111.042 141.763 110.881C158.899 109.758 174.278 104.056 185.049 94.8243C192.638 88.3054 194.262 81.3197 195.842 74.5674C196.087 73.5028 196.354 72.409 196.621 71.3298C198.535 63.8483 204.477 58.3502 211.376 51.9771C212.889 50.577 214.447 49.1332 216.027 47.6165C222.214 41.6809 226.331 34.6369 227.978 27.2575C229.603 20.0093 228.757 12.8049 225.53 6.41719Z" fill="url(#paint14_linear_346_270)"/>
<path d="M221.591 3.00457C221.012 1.98371 220.323 0.992005 219.633 0.0148885L218.653 0.0148885C219.41 1.06492 220.145 2.11496 220.768 3.20875C224.328 9.33395 225.463 16.3488 224.061 23.4657C222.637 30.7138 218.653 37.612 212.533 43.4018C211.042 44.8164 209.551 46.1727 208.105 47.4852C201.072 53.8875 195.019 59.4002 193.661 67.2172C193.439 68.4714 193.261 69.7402 193.083 70.9652C192.148 77.5133 191.191 84.2948 184.248 90.6096C179.329 95.0723 173.276 98.7182 166.266 101.416C158.922 104.246 150.866 105.908 142.32 106.36C131.504 106.929 120.176 105.777 109.561 103.035C106.111 102.131 102.884 101.081 99.4794 99.9579C96.564 98.9953 93.5596 98.0182 90.4217 97.1432C81.5866 94.6931 73.063 93.1326 65.0735 92.5055C60.7784 92.1555 56.461 92.1117 52.2993 92.0534C51.5427 92.0388 50.8083 92.0388 50.0739 92.0243C48.0932 91.9951 46.1348 91.9805 44.0651 91.9659C28.9764 91.8055 12.3966 91.6597 0.0229685 86.5116L0.0229686 87.2116C12.5301 92.243 29.0209 92.3889 44.0428 92.5201C46.1125 92.5347 48.0932 92.5493 50.0516 92.5784C50.786 92.593 51.5427 92.593 52.2993 92.6076C56.4387 92.6659 60.7339 92.7097 64.9845 93.0597C72.885 93.6868 81.3418 95.2327 90.0879 97.6536C93.2035 98.5141 96.2079 99.5057 99.101 100.454C102.372 101.533 105.755 102.641 109.249 103.545C118.196 105.864 127.654 107.06 136.89 107.06C138.737 107.06 140.584 107.016 142.409 106.914C151.088 106.462 159.256 104.771 166.733 101.897C173.855 99.1557 179.997 95.466 184.982 90.9305C192.059 84.4844 193.038 77.63 193.973 70.9944C194.151 69.7693 194.329 68.5005 194.552 67.2609C195.887 59.6044 201.896 54.1355 208.839 47.8061C210.286 46.4935 211.754 45.1372 213.268 43.7226C219.455 37.8599 223.505 30.8743 224.952 23.524C226.354 16.3342 225.196 9.23187 221.591 3.00457Z" fill="url(#paint15_linear_346_270)"/>
<path d="M217.808 0.0145217L217.074 0.0145217C220.901 5.93555 222.304 12.7754 221.124 19.7756C219.9 26.9946 216.005 33.8344 209.863 39.5659C208.417 40.9076 206.992 42.1909 205.612 43.4306C198.558 49.7599 192.46 55.2289 191.703 63.2062C191.57 64.5917 191.503 66.0063 191.436 67.3772C191.102 73.8378 190.769 80.5027 184.27 86.7883C179.574 91.3238 173.699 94.999 166.756 97.697C159.501 100.526 151.511 102.13 143.01 102.48C132.261 102.918 121.089 101.533 110.696 98.4845C107.38 97.5074 104.175 96.3407 101.082 95.2031C98.2112 94.1531 95.229 93.0593 92.0911 92.0968C83.5898 89.4863 75.3333 87.8675 67.5441 87.2841C63.9834 87.007 60.4226 86.9633 56.9509 86.9633C56.1275 86.9633 55.304 86.9633 54.5029 86.9633C53.9688 86.9633 53.4346 86.9633 52.9005 86.9633C50.6528 86.9633 48.3828 86.9925 45.9793 87.0216C29.8446 87.1966 11.9963 87.4008 0.0455506 80.6777L0.0455508 81.261C12.1521 87.8237 29.9337 87.6341 46.0016 87.4591C48.4051 87.43 50.6751 87.4008 52.9228 87.4008C53.4569 87.4008 53.991 87.4008 54.5251 87.4008C58.7535 87.3862 63.1377 87.3716 67.4996 87.7071C75.222 88.2904 83.4118 89.8946 91.8463 92.4906C94.962 93.4385 97.9219 94.5323 100.793 95.5823C103.908 96.7199 107.113 97.9012 110.474 98.8783C119.709 101.576 129.546 102.991 139.182 102.991C140.495 102.991 141.808 102.962 143.099 102.918C151.712 102.568 159.812 100.949 167.156 98.0762C174.167 95.3344 180.131 91.6155 184.871 87.0362C191.458 80.6485 191.815 73.9108 192.148 67.3918C192.215 66.0209 192.282 64.6063 192.415 63.2354C193.15 55.3893 198.914 50.2266 206.191 43.6931C207.571 42.4534 208.995 41.1701 210.442 39.8284C216.651 34.0386 220.59 27.1404 221.814 19.8485C222.971 12.8191 221.591 5.97931 217.808 0.0145217Z" fill="url(#paint16_linear_346_270)"/>
<path d="M215.982 0.0143431L215.27 0.0143431C217.896 4.95826 218.853 10.4418 218.03 16.0857C217.006 23.2464 213.2 30.0279 207.058 35.6864C205.678 36.9406 204.321 38.1365 203.008 39.2886C195.575 45.8367 189.699 50.9994 189.588 59.1663C189.566 60.6685 189.633 62.1998 189.677 63.6873C189.922 70.0605 190.189 76.6524 184.136 82.9088C174.944 92.3737 160.167 98.076 143.61 98.5281C132.928 98.8198 121.934 97.2155 111.808 93.8759C108.625 92.8258 105.576 91.5862 102.617 90.3757C99.7902 89.2236 96.8526 88.0277 93.7369 86.9777C85.5472 84.2068 77.5355 82.5151 69.9466 81.9755C67.5431 81.8004 65.1174 81.7421 62.7361 81.7421C60.6887 81.7421 58.6635 81.7859 56.6606 81.8296L55.6591 81.8442C53.1888 81.8879 50.6963 81.9754 48.048 82.0629C30.5113 82.6317 10.8826 83.2588 1.44035e-05 73.8668L1.45429e-05 74.5815C11.1496 83.6818 30.667 83.0547 48.0925 82.4859C50.7408 82.3984 53.2333 82.3255 55.7036 82.2671L56.7051 82.2525C61.0225 82.165 65.4734 82.0775 69.9021 82.3984C77.4242 82.938 85.3469 84.6151 93.4699 87.3569C96.5633 88.4069 99.4787 89.5882 102.305 90.7403C105.265 91.9508 108.358 93.205 111.563 94.255C120.999 97.3614 131.192 98.9802 141.206 98.9802C142.03 98.9802 142.875 98.9656 143.699 98.951C160.501 98.4989 175.456 92.7237 184.781 83.1422C190.946 76.7836 190.679 70.1188 190.411 63.6727C190.345 62.1852 190.3 60.6539 190.322 59.1663C190.434 51.1307 196.242 46.0117 203.609 39.5365C204.922 38.3844 206.279 37.1885 207.659 35.9197C213.868 30.2029 217.696 23.3485 218.742 16.1003C219.521 10.4709 218.586 4.97284 215.982 0.0143431Z" fill="url(#paint17_linear_346_270)"/>
<path d="M214.002 0.0148886L213.312 0.0148886C217.585 10.4861 214.403 22.6927 204.321 31.8076C202.964 33.0181 201.651 34.1702 200.36 35.2932C192.905 41.7392 187.029 46.829 187.564 55.1563C187.675 56.746 187.875 58.3939 188.098 59.9836C188.921 66.2984 189.789 72.8319 184.136 79.0592C175.39 88.6991 160.88 94.3577 144.345 94.591C133.729 94.7514 122.914 92.9139 113.032 89.2825C109.961 88.1595 107.046 86.847 104.197 85.5636C101.416 84.3094 98.5447 83.026 95.4958 81.8885C87.6176 78.9426 79.8729 77.1925 72.4621 76.6967C70.615 76.5654 68.7901 76.5216 66.9429 76.5216C64.2501 76.5216 61.5795 76.6237 58.9757 76.7258L58.5084 76.7404C55.9046 76.8425 53.2118 76.9883 50.3854 77.1488C31.5802 78.1842 10.2601 79.3509 1.26923 66.6047C0.846389 66.0067 0.445804 65.4088 0.0229636 64.7962L0.0229639 65.8755C0.223256 66.1817 0.445804 66.488 0.646096 66.7797C4.74097 72.5986 11.729 76.0841 21.9884 77.455C30.9125 78.6509 40.8381 78.0967 50.4299 77.5717C53.2563 77.4113 55.9268 77.2654 58.5529 77.1633L59.0203 77.1488C63.3822 76.9883 67.8999 76.8133 72.3953 77.1196C79.6949 77.6154 87.3505 79.3509 95.1619 82.2677C98.1886 83.4052 101.059 84.6886 103.819 85.9282C106.668 87.2116 109.605 88.5241 112.699 89.6617C122.29 93.1764 132.795 95.0285 143.121 95.0285C143.521 95.0285 143.944 95.0285 144.345 95.0139C161.125 94.7806 175.835 89.0346 184.715 79.2634C190.479 72.9049 189.611 66.313 188.765 59.9253C188.565 58.3356 188.342 56.7022 188.231 55.1126C187.719 46.9456 193.528 41.9142 200.894 35.5265C202.185 34.4181 203.52 33.2514 204.878 32.041C215.004 22.8677 218.253 10.5736 214.002 0.0148886Z" fill="url(#paint18_linear_346_270)"/>
<path d="M211.31 0.0141556L210.864 0.0141556C211.955 3.17885 212.378 6.50396 212.088 9.87282C211.465 16.8585 207.771 23.7129 201.673 29.1526C200.338 30.3339 199.025 31.4569 197.756 32.5361C190.323 38.8655 184.448 43.8823 185.628 52.2972C185.872 53.9743 186.251 55.7098 186.629 57.3869C188.031 63.6726 189.455 70.1624 184.181 76.4042C180.22 81.0711 174.678 84.9504 168.158 87.6046C161.214 90.4339 153.447 91.8777 145.035 91.8923L144.946 91.8923C134.419 91.8923 123.782 89.8359 114.168 85.9275C111.208 84.717 108.381 83.3316 105.666 81.9898C102.951 80.6481 100.169 79.2627 97.165 78.0376C89.5984 74.9313 82.1431 73.1229 74.9548 72.6562C73.5083 72.5541 72.0617 72.5249 70.6151 72.5249C67.4995 72.5249 64.4061 72.6999 61.4017 72.875C58.6866 73.0354 55.8825 73.2541 52.9226 73.4875C43.6424 74.2167 34.0729 74.975 25.5271 73.9687C15.8017 72.8312 9.30336 69.5207 5.65359 63.8476C5.09722 62.9725 4.54085 62.0683 4.00674 61.1933C2.82724 59.2537 1.62548 57.2703 0.134412 55.3744L0.134413 56.016C1.44744 57.7369 2.53792 59.5308 3.60615 61.2954C4.14027 62.1704 4.67438 63.0746 5.253 63.9497C8.96954 69.7103 15.5792 73.0791 25.4603 74.2458C34.0729 75.2521 43.6869 74.4938 52.9894 73.7646C55.9493 73.5312 58.7534 73.3125 61.4685 73.152C65.8749 72.9041 70.4149 72.627 74.9548 72.9333C82.0763 73.4 89.4649 75.1938 96.9647 78.271C99.9469 79.496 102.729 80.8669 105.444 82.2086C108.181 83.5649 111.007 84.9504 113.99 86.1608C123.67 90.0984 134.397 92.1694 145.013 92.1694L145.102 92.1694C153.603 92.1548 161.459 90.711 168.469 87.8379C175.079 85.1399 180.665 81.2315 184.648 76.5209C190.012 70.1915 188.565 63.6434 187.163 57.314C186.785 55.6369 186.407 53.916 186.162 52.2388C184.982 43.9261 190.813 38.9676 198.202 32.6819C199.47 31.6027 200.783 30.4798 202.118 29.2985C208.283 23.815 211.999 16.9022 212.623 9.87282C212.801 6.51854 212.378 3.17885 211.31 0.0141556Z" fill="url(#paint19_linear_346_270)"/>
<path d="M208.372 0.0148887L207.927 0.0148887C210.909 9.27562 207.815 19.6155 198.869 27.4616C197.534 28.6138 196.243 29.7076 194.974 30.7576C187.519 36.9849 181.644 41.9142 183.513 50.4603C183.892 52.2104 184.47 54.0188 185.004 55.7689C186.94 62.0107 188.966 68.4714 184.047 74.7278C180.309 79.453 174.945 83.3615 168.514 86.0303C161.681 88.8596 153.981 90.245 145.613 90.1429C132.394 89.9971 121.801 86.4532 115.236 83.5219C112.365 82.2385 109.65 80.7655 107.024 79.3363C104.398 77.9071 101.683 76.4341 98.7672 75.1216C91.5122 71.8548 84.3016 69.9881 77.3359 69.5506C76.1787 69.4777 75.0214 69.4485 73.8642 69.4485C70.3924 69.4485 66.9874 69.711 64.1166 69.9443C61.357 70.1631 58.4639 70.4694 55.3927 70.7756C46.8024 71.6652 37.0548 72.6861 28.7983 71.8548C19.3846 70.9069 13.1978 67.713 9.92632 62.0691C9.43671 61.2086 8.94711 60.3336 8.47976 59.4731C6.81065 56.4105 5.09704 53.2313 2.0704 50.5041C1.44726 49.9499 0.757366 49.4103 0.0229601 48.8853L0.0229602 49.3228C0.623838 49.7603 1.18021 50.2124 1.71432 50.6791C4.71871 53.3771 6.41007 56.5272 8.07917 59.5752C8.54653 60.4357 9.01387 61.3107 9.52573 62.1712C12.8639 67.9172 19.162 71.184 28.7538 72.1465C37.0993 72.9778 46.8692 71.9715 55.504 71.0673C58.5752 70.7464 61.446 70.4548 64.2056 70.236C68.0112 69.9297 72.7514 69.5652 77.3136 69.8423C84.2126 70.2652 91.3564 72.1173 98.5447 75.3549C101.438 76.6675 104.153 78.1259 106.779 79.5551C109.405 80.9843 112.12 82.4573 115.013 83.7552C124.494 87.9991 135.087 90.3179 145.636 90.4346C145.947 90.4346 146.259 90.4346 146.57 90.4346C154.671 90.4346 162.126 89.0346 168.781 86.2782C175.279 83.5802 180.709 79.628 184.47 74.8591C189.477 68.5151 187.43 62.0107 185.472 55.7105C184.938 53.9605 184.359 52.1521 183.981 50.4166C182.133 42.0017 187.964 37.1161 195.353 30.9472C196.621 29.8972 197.912 28.8034 199.247 27.6367C208.216 19.7468 211.354 9.33395 208.372 0.0148887Z" fill="url(#paint20_linear_346_270)"/>
<path d="M205.39 0.0148888L205.167 0.0148888C205.835 2.23163 206.124 4.53587 206.057 6.86929C205.857 13.782 202.341 20.5052 196.198 25.8137C194.885 26.9512 193.572 28.0158 192.326 29.0513C184.893 35.1619 179.018 39.9892 181.577 48.6082C182.111 50.4166 182.823 52.2104 183.602 54.1063C186.095 60.3336 188.699 66.7796 184.092 73.0799C176.748 83.1281 162.594 88.8741 146.281 88.4512C133.151 88.1304 122.736 84.3094 116.326 81.1593C113.544 79.7884 110.941 78.2425 108.426 76.7404C105.866 75.2237 103.24 73.6632 100.392 72.2632C93.4706 68.836 86.5271 66.9109 79.7839 66.5171C78.8492 66.4588 77.9368 66.4442 77.0021 66.4442C73.6861 66.4442 70.3479 66.7505 66.9652 67.0859C64.1833 67.363 61.2457 67.7568 58.1301 68.1651C49.7623 69.2589 40.2595 70.4985 32.2256 69.8423C23.0566 69.0985 17.1591 65.9921 14.2215 60.3336C13.7764 59.4877 13.3758 58.6127 12.953 57.7814C11.4841 54.7334 9.97082 51.5979 7.05545 48.929C5.25282 47.2811 2.91607 45.8373 0.0229591 44.5831L0.0229592 44.7581C2.82706 45.9977 5.11929 47.4123 6.87742 49.0165C9.77053 51.6562 11.2839 54.7917 12.7304 57.8252C13.131 58.671 13.5538 59.5461 13.9989 60.3919C16.9811 66.1088 22.9231 69.2443 32.2033 70.0027C40.2595 70.6589 49.7845 69.4193 58.1746 68.3255C61.2902 67.9172 64.2279 67.538 67.0097 67.2609C71.3271 66.8234 75.5555 66.4442 79.7839 66.6921C86.4826 67.0713 93.3815 68.9964 100.281 72.409C103.107 73.809 105.733 75.3695 108.292 76.8717C110.829 78.3738 113.433 79.9197 116.215 81.2906C122.647 84.4553 133.084 88.2908 146.281 88.6116C146.86 88.6262 147.416 88.6408 147.995 88.6408C163.684 88.6408 177.171 82.9239 184.292 73.1674C188.921 66.8234 186.317 60.3628 183.825 54.0917C183.068 52.1958 182.334 50.402 181.8 48.5936C180.642 44.656 181.132 41.2871 183.38 37.9912C185.427 34.9723 188.721 32.2743 192.504 29.1534C193.75 28.1179 195.063 27.0533 196.376 25.9158C202.563 20.5781 206.079 13.8258 206.302 6.88387C206.347 4.53588 206.035 2.23163 205.39 0.0148888Z" fill="url(#paint21_linear_346_270)"/>
<path d="M202.475 0.014522L202.23 0.014522C202.742 1.85208 203.009 3.7334 203.009 5.64388C203.009 12.5129 199.604 19.1777 193.417 24.4133C192.104 25.5362 190.791 26.5717 189.545 27.5925C181.822 33.8344 176.259 38.3408 179.485 47.0619C180.175 48.9141 181.088 50.7808 182.045 52.7351C185.094 58.9478 188.254 65.3792 183.981 71.694C180.709 76.5504 175.658 80.5318 169.426 83.2007C162.883 86.0008 155.094 87.3133 146.905 86.9779C136.69 86.5841 126.23 83.7549 117.439 79.0297C114.724 77.5567 112.187 75.9233 109.739 74.3337C107.291 72.7441 104.754 71.1107 102.039 69.6377C95.4293 66.0501 88.7529 64.0521 82.21 63.7021C81.4533 63.6583 80.7189 63.6438 79.9623 63.6438C76.4683 63.6438 73.0188 64.0375 69.7474 64.4459C66.9878 64.7959 64.0279 65.2626 60.89 65.7584C52.7225 67.0564 43.4645 68.5148 35.6754 68.0481C26.7512 67.5085 21.1653 64.5042 18.5837 58.8457C18.2054 58.0144 17.8493 57.1394 17.4933 56.3081C16.247 53.2892 14.9562 50.1683 12.1521 47.587C9.48155 45.1223 5.40893 43.1535 0.0455417 41.7097L0.0455418 41.8701C5.34217 43.2993 9.34802 45.2536 11.9741 47.6745C14.7559 50.2412 16.0467 53.3476 17.293 56.3518C17.649 57.1831 18.0051 58.0582 18.3834 58.8894C21.0095 64.5917 26.6622 67.6397 35.6754 68.1939C43.509 68.6752 52.7893 67.2022 60.979 65.9043C64.1169 65.4084 67.0768 64.9417 69.8364 64.5917C73.7977 64.0959 78.0261 63.6292 82.2323 63.8479C88.7306 64.1834 95.3626 66.1668 101.95 69.7398C104.665 71.2128 107.202 72.8462 109.628 74.4358C112.076 76.0254 114.613 77.6588 117.328 79.1318C126.141 83.8861 136.645 86.7154 146.905 87.1237C147.728 87.1529 148.551 87.1675 149.353 87.1675C156.697 87.1675 163.64 85.8549 169.56 83.3173C175.836 80.6339 180.91 76.6234 184.203 71.7378C188.499 65.3647 185.338 58.9186 182.267 52.6767C181.31 50.7079 180.398 48.8558 179.708 47.0036C176.503 38.3554 182.045 33.8782 189.723 27.6655C190.969 26.6592 192.282 25.6091 193.595 24.4862C201.851 17.5005 204.811 8.38564 202.475 0.014522Z" fill="url(#paint22_linear_346_270)"/>
<path d="M200.182 4.28795C200.137 2.84415 199.937 1.41494 199.581 0.0148889L199.359 0.0148889C199.715 1.41494 199.915 2.84415 199.959 4.28795C200.16 11.0986 196.844 17.7051 190.657 22.8823C189.344 23.9761 188.031 25.0116 186.785 26.0033C179.062 32.1285 173.499 36.562 177.415 45.3706C178.261 47.2811 179.374 49.1915 180.553 51.2041C184.159 57.4022 187.875 63.8191 183.936 70.1631C180.887 75.0778 176.013 79.0884 169.871 81.7718C163.439 84.5719 155.739 85.8115 147.572 85.3886C137.379 84.849 127.097 81.7864 118.596 76.7696C115.948 75.1945 113.478 73.459 111.096 71.7819C108.76 70.1339 106.334 68.4276 103.752 66.8817C97.4319 63.1337 91.0226 61.0628 84.68 60.7711C84.0791 60.7419 83.5004 60.7274 82.8996 60.7274C79.2721 60.7274 75.7113 61.2232 72.5734 61.6899C69.8583 62.0982 66.8984 62.6524 63.7828 63.2358C52.2993 65.3942 39.2803 67.8297 30.7567 64.6358C26.9067 63.192 24.3696 60.7857 22.9676 57.2418C22.6338 56.4105 22.3445 55.5355 22.0329 54.7042C20.9869 51.7145 19.9187 48.6374 17.2259 46.1144C13.8431 42.9497 8.05691 40.7475 0.022958 39.5954L0.0229581 39.7412C7.9679 40.8934 13.6874 43.0663 17.0478 46.1873C19.7184 48.6957 20.7866 51.7583 21.8326 54.7334C22.1219 55.5647 22.4335 56.4397 22.7673 57.271C24.1693 60.8003 26.8177 63.3233 30.6677 64.7525C39.2581 67.9755 52.3438 65.5254 63.8718 63.367C66.9874 62.7837 69.9473 62.2295 72.6624 61.8212C76.2899 61.267 80.5183 60.6982 84.7022 60.9024C91.0003 61.2086 97.3651 63.2504 103.641 66.9838C106.223 68.5297 108.648 70.2214 110.985 71.8694C113.366 73.5611 115.837 75.2966 118.507 76.8717C127.031 81.9031 137.357 84.9803 147.594 85.5199C148.662 85.5782 149.708 85.6074 150.754 85.6074C157.787 85.6074 164.396 84.3386 170.049 81.8885C176.236 79.2051 181.11 75.1653 184.181 70.2214C188.142 63.8191 184.426 57.3877 180.82 51.1458C179.641 49.1332 178.55 47.2227 177.705 45.3268C173.81 36.5911 179.352 32.1868 187.029 26.0908C188.276 25.0991 189.566 24.0636 190.902 22.9698C197.044 17.778 200.382 11.1423 200.182 4.28795Z" fill="url(#paint23_linear_346_270)"/>
<path d="M273.978 71.8545C271.842 76.3755 269.372 80.8382 266.545 85.2279C257.643 99.0388 245.604 111.698 230.649 122.971L231.828 122.971C246.605 111.741 258.511 99.1554 267.369 85.4466C269.839 81.6111 272.042 77.7172 274.001 73.7942L274.001 71.8545L273.978 71.8545Z" fill="url(#paint24_linear_346_270)"/>
<path d="M273.979 82.8507C273.222 84.1195 272.443 85.3737 271.642 86.628C263.118 99.8263 251.813 112.004 237.904 122.956L238.772 122.956C252.547 112.033 263.786 99.9138 272.243 86.7884C272.844 85.8696 273.4 84.9508 273.957 84.032L273.957 82.8507L273.979 82.8507Z" fill="url(#paint25_linear_346_270)"/>
<defs>
<linearGradient id="paint0_linear_346_270" x1="273.333" y1="-0.0303272" x2="274.324" y2="0.17879" gradientUnits="userSpaceOnUse">
<stop stop-color="#87D1A1"/>
<stop offset="1" stop-color="#1EA0BB"/>
</linearGradient>
<linearGradient id="paint1_linear_346_270" x1="221.816" y1="56.3754" x2="288.352" y2="90.2312" gradientUnits="userSpaceOnUse">
<stop stop-color="#87D1A1"/>
<stop offset="1" stop-color="#1EA0BB"/>
</linearGradient>
<linearGradient id="paint2_linear_346_270" x1="213.874" y1="-2.80561" x2="301.905" y2="24.5252" gradientUnits="userSpaceOnUse">
<stop stop-color="#87D1A1"/>
<stop offset="1" stop-color="#1EA0BB"/>
</linearGradient>
<linearGradient id="paint3_linear_346_270" x1="206.606" y1="-2.80561" x2="298.273" y2="27.1018" gradientUnits="userSpaceOnUse">
<stop stop-color="#87D1A1"/>
<stop offset="1" stop-color="#1EA0BB"/>
</linearGradient>
<linearGradient id="paint4_linear_346_270" x1="199.594" y1="-2.78986" x2="294.395" y2="29.4669" gradientUnits="userSpaceOnUse">
<stop stop-color="#87D1A1"/>
<stop offset="1" stop-color="#1EA0BB"/>
</linearGradient>
<linearGradient id="paint5_linear_346_270" x1="192.949" y1="-2.80561" x2="290.516" y2="31.6309" gradientUnits="userSpaceOnUse">
<stop stop-color="#87D1A1"/>
<stop offset="1" stop-color="#1EA0BB"/>
</linearGradient>
<linearGradient id="paint6_linear_346_270" x1="186.221" y1="-2.80561" x2="286.932" y2="34.2345" gradientUnits="userSpaceOnUse">
<stop stop-color="#87D1A1"/>
<stop offset="1" stop-color="#1EA0BB"/>
</linearGradient>
<linearGradient id="paint7_linear_346_270" x1="179.402" y1="-2.78986" x2="283.239" y2="36.9828" gradientUnits="userSpaceOnUse">
<stop stop-color="#87D1A1"/>
<stop offset="1" stop-color="#1EA0BB"/>
</linearGradient>
<linearGradient id="paint8_linear_346_270" x1="171.91" y1="-2.79053" x2="279.586" y2="40.532" gradientUnits="userSpaceOnUse">
<stop stop-color="#87D1A1"/>
<stop offset="1" stop-color="#1EA0BB"/>
</linearGradient>
<linearGradient id="paint9_linear_346_270" x1="163.522" y1="-2.80576" x2="275.708" y2="45.0367" gradientUnits="userSpaceOnUse">
<stop stop-color="#87D1A1"/>
<stop offset="1" stop-color="#1EA0BB"/>
</linearGradient>
<linearGradient id="paint10_linear_346_270" x1="151.974" y1="-2.82004" x2="271.289" y2="52.9862" gradientUnits="userSpaceOnUse">
<stop stop-color="#87D1A1"/>
<stop offset="1" stop-color="#1EA0BB"/>
</linearGradient>
<linearGradient id="paint11_linear_346_270" x1="-8.19178" y1="-2.82009" x2="142.736" y2="189.87" gradientUnits="userSpaceOnUse">
<stop stop-color="#87D1A1"/>
<stop offset="1" stop-color="#1EA0BB"/>
</linearGradient>
<linearGradient id="paint12_linear_346_270" x1="-8.04995" y1="-2.72262" x2="137.889" y2="186.458" gradientUnits="userSpaceOnUse">
<stop stop-color="#87D1A1"/>
<stop offset="1" stop-color="#1EA0BB"/>
</linearGradient>
<linearGradient id="paint13_linear_346_270" x1="-7.95417" y1="-2.61014" x2="132.09" y2="182.777" gradientUnits="userSpaceOnUse">
<stop stop-color="#87D1A1"/>
<stop offset="1" stop-color="#1EA0BB"/>
</linearGradient>
<linearGradient id="paint14_linear_346_270" x1="-7.84066" y1="-2.53327" x2="126.452" y2="179.105" gradientUnits="userSpaceOnUse">
<stop stop-color="#87D1A1"/>
<stop offset="1" stop-color="#1EA0BB"/>
</linearGradient>
<linearGradient id="paint15_linear_346_270" x1="-7.72885" y1="-2.44028" x2="120.768" y2="175.378" gradientUnits="userSpaceOnUse">
<stop stop-color="#87D1A1"/>
<stop offset="1" stop-color="#1EA0BB"/>
</linearGradient>
<linearGradient id="paint16_linear_346_270" x1="-7.59142" y1="-2.34732" x2="115.069" y2="171.487" gradientUnits="userSpaceOnUse">
<stop stop-color="#87D1A1"/>
<stop offset="1" stop-color="#1EA0BB"/>
</linearGradient>
<linearGradient id="paint17_linear_346_270" x1="-7.52839" y1="-2.25551" x2="109.322" y2="167.606" gradientUnits="userSpaceOnUse">
<stop stop-color="#87D1A1"/>
<stop offset="1" stop-color="#1EA0BB"/>
</linearGradient>
<linearGradient id="paint18_linear_346_270" x1="-7.39519" y1="-2.16432" x2="103.718" y2="163.612" gradientUnits="userSpaceOnUse">
<stop stop-color="#87D1A1"/>
<stop offset="1" stop-color="#1EA0BB"/>
</linearGradient>
<linearGradient id="paint19_linear_346_270" x1="-7.17123" y1="-2.09949" x2="99.9653" y2="160.202" gradientUnits="userSpaceOnUse">
<stop stop-color="#87D1A1"/>
<stop offset="1" stop-color="#1EA0BB"/>
</linearGradient>
<linearGradient id="paint20_linear_346_270" x1="-7.17665" y1="-2.05896" x2="97.7602" y2="157.61" gradientUnits="userSpaceOnUse">
<stop stop-color="#87D1A1"/>
<stop offset="1" stop-color="#1EA0BB"/>
</linearGradient>
<linearGradient id="paint21_linear_346_270" x1="-7.06803" y1="-2.01781" x2="95.5887" y2="154.939" gradientUnits="userSpaceOnUse">
<stop stop-color="#87D1A1"/>
<stop offset="1" stop-color="#1EA0BB"/>
</linearGradient>
<linearGradient id="paint22_linear_346_270" x1="-6.93954" y1="-1.9844" x2="93.9418" y2="152.522" gradientUnits="userSpaceOnUse">
<stop stop-color="#87D1A1"/>
<stop offset="1" stop-color="#1EA0BB"/>
</linearGradient>
<linearGradient id="paint23_linear_346_270" x1="-6.85781" y1="-1.94824" x2="92.0966" y2="150.066" gradientUnits="userSpaceOnUse">
<stop stop-color="#87D1A1"/>
<stop offset="1" stop-color="#1EA0BB"/>
</linearGradient>
<linearGradient id="paint24_linear_346_270" x1="229.158" y1="70.6821" x2="284.111" y2="101.297" gradientUnits="userSpaceOnUse">
<stop stop-color="#87D1A1"/>
<stop offset="1" stop-color="#1EA0BB"/>
</linearGradient>
<linearGradient id="paint25_linear_346_270" x1="236.664" y1="81.9309" x2="281.078" y2="108.174" gradientUnits="userSpaceOnUse">
<stop stop-color="#87D1A1"/>
<stop offset="1" stop-color="#1EA0BB"/>
</linearGradient>
</defs>
</svg>
