<svg width="17" height="19" viewBox="0 0 17 19" fill="none" xmlns="http://www.w3.org/2000/svg">
<path d="M9.35081 10.7959C9.0668 10.8047 8.78278 10.8096 8.50007 10.8096C8.21638 10.8096 7.93139 10.805 7.64672 10.7959C5.25022 10.7302 3.34046 10.3917 1.96543 9.90888C1.31905 9.69081 0.765708 9.43421 0.338379 9.14073V11.4622V11.6254V11.7886V12.2094C1.26747 13.1793 4.38446 14.0738 8.49975 14.0738C12.615 14.0738 15.732 13.1793 16.6611 12.2094V11.7886V11.6254V11.4622V9.14073C16.2308 9.43617 15.6726 9.69473 15.0207 9.91345C13.6463 10.394 11.7405 10.7306 9.35081 10.7959Z" fill="#83CFA2"/>
<path d="M0.338379 4.86058V7.182V7.34523V7.50846V7.92926C1.19957 8.82831 3.94015 9.66273 7.61375 9.7796C7.65129 9.78091 7.68981 9.78123 7.72768 9.78221C7.83411 9.78515 7.9402 9.78809 8.04826 9.78972C8.19745 9.79233 8.34795 9.79364 8.49975 9.79364C8.65155 9.79364 8.80204 9.79233 8.95123 9.79005C9.05896 9.78841 9.16539 9.78548 9.27181 9.78254C9.30968 9.78156 9.3482 9.78091 9.38575 9.77993C13.0593 9.66273 15.7999 8.82831 16.6611 7.92958V7.50846V7.34523V7.182V4.86058C15.0723 5.95192 11.7134 6.52909 8.49975 6.52909C5.28613 6.52909 1.92756 5.95192 0.338379 4.86058Z" fill="#83CFA2"/>
<path d="M16.6178 2.78858C16.2515 1.38449 13.4348 0 8.50048 0C3.57852 0 0.764808 1.37764 0.3871 2.77813C0.359352 2.82612 0.339111 2.87868 0.339111 2.93809V3.10132V3.6909C1.26526 4.65753 4.36005 5.54973 8.50048 5.54973C12.6409 5.54973 15.736 4.65753 16.6618 3.6909V3.10132V2.93809C16.6618 2.88325 16.6436 2.83395 16.6178 2.78858Z" fill="#83CFA2"/>
<path d="M0.338379 13.3846V16.0619C0.338379 16.1148 0.352416 16.1647 0.376574 16.2091C0.762117 17.8071 4.21144 19 8.49975 19C12.7783 19 16.222 17.812 16.6203 16.2199C16.6464 16.1729 16.6611 16.119 16.6611 16.0619V13.3853C15.3112 14.3356 12.5298 15.0825 8.49975 15.0825C4.46934 15.0825 1.68794 14.335 0.338379 13.3846Z" fill="#83CFA2"/>
</svg>
